<?xml version="1.0" encoding="utf-8"?>
<!-- Generator: Adobe Illustrator 16.0.0, SVG Export Plug-In . SVG Version: 6.00 Build 0)  -->
<!DOCTYPE svg PUBLIC "-//W3C//DTD SVG 1.1//EN" "http://www.w3.org/Graphics/SVG/1.1/DTD/svg11.dtd">
<svg version="1.1" id="Layer_1" xmlns="http://www.w3.org/2000/svg" xmlns:xlink="http://www.w3.org/1999/xlink" x="0px" y="0px"
	 width="300px" height="100px" viewBox="0 0 300 100" enable-background="new 0 0 300 100" xml:space="preserve">
<path fill-rule="evenodd" clip-rule="evenodd" fill="#FFFFFF" d="M156.538,48.355c-0.868-7.373,4.232-14.132,11.852-15.134
	c7.945-1.044,14.388,4.948,15.104,11.789c0.849,8.117-4.874,14.422-11.92,15.15C163.619,60.983,157.348,55.219,156.538,48.355
	L156.538,48.355z M188.053,5.791h-1.006c-0.97,0.512-1.332,0.396-2.205,1.139c-1.96,1.665-1.24,5.778-1.24,9.063
	c0,2.268,0.131,12.501-0.058,13.833c-3.736-2.313-5.721-4.006-11.164-4.585c-4.928-0.525-9.719,0.743-13.068,2.714
	c-16.411,9.665-13.07,32.771,2.688,38.747c6.303,2.39,13.084,2.074,18.999-1.437c1.177-0.697,3.96-2.738,4.352-3.41l1.757,4.766
	c1.585,3.819,2.593,5.343,4.799,8.602c6.385,9.429,16.979,16.198,28.393,18.48c1.948,0.39,3.874,0.597,5.944,0.749
	c2.248,0.165,4.047,0.358,5.471-0.963c1.092-1.014,1.906-3.151,0.772-4.953c-1.067-1.695-2.128-1.905-4.692-2.024
	c-4.044-0.188-7.898-0.881-11.274-2.106c-4.583-1.663-9.23-4.355-12.593-7.492c-1.012-0.944-2.539-2.337-3.301-3.396
	c-0.481-0.667-0.941-1.18-1.492-1.854c-3.426-4.185-6.108-10.986-7.027-16.362c-0.842-4.928-0.518-20.288-0.518-26.236
	c0-2.102,0.154-18.807-0.081-20.064C191.033,6.462,188.616,6.061,188.053,5.791z"/>
<path fill-rule="evenodd" clip-rule="evenodd" fill="#FFFFFF" d="M26.05,33.184c4.238-0.547,7.611,1.358,10,3.2
	c8.397,6.471,5.304,22.695-7.631,23.808c-7.941,0.684-13.982-5.142-14.7-12.18C12.968,40.658,18.126,34.207,26.05,33.184
	L26.05,33.184z M5.584,9.482v37.813c0.298,0.726,0.101,7.564,5.062,13.216c10.617,12.097,28.668,9.436,35.736-3.893
	c7.308-13.78-2.645-31.327-18.792-31.473c-3-0.027-5.535,0.397-7.981,1.356c-2.124,0.832-2.718,1.274-4.521,2.342
	c-0.512,0.304-0.897,0.715-1.373,0.988c-0.395-3.048,0.284-17.382-0.083-20.475c-0.295-2.494-2.136-2.925-3.315-3.567H9.199
	C8.076,6.342,7.687,6.081,6.786,6.992C5.943,7.844,6.121,8.372,5.584,9.482z"/>
<path fill-rule="evenodd" clip-rule="evenodd" fill="#FFFFFF" d="M89.859,48.674c-1.007,6.809-7.269,12.547-15.38,11.432
	c-6.68-0.918-12.694-7.355-11.426-15.543c1.034-6.679,7.324-12.46,15.364-11.302C85.224,34.243,91.071,40.49,89.859,48.674
	L89.859,48.674z M90.001,63.586c0.068,6.364,7.871,5.912,8.039,0.553c0.059-1.875,0-3.853,0-5.739c0-7.571,0.776-14.48-2.004-20.767
	C89.96,23.895,70.15,20.18,59.707,33.122c-1.713,2.123-3.001,4.393-3.924,7.401c-1.787,5.823-0.772,13.267,2.75,18.182
	c7.031,9.813,19.368,12.524,29.646,6.07C88.892,64.327,89.202,63.924,90.001,63.586z"/>
<path fill-rule="evenodd" clip-rule="evenodd" fill="#FFFFFF" d="M235.712,48.037c-0.808,7.09-6.767,12.888-14.865,12.139
	c-7.009-0.646-12.885-6.896-12.104-15.008c0.66-6.855,7.073-12.836,14.982-11.965C230.582,33.958,236.607,40.183,235.712,48.037
	L235.712,48.037z M219.018,25.392c-6.539,1.091-10.748,4.279-13.728,7.896c-7.096,8.613-6.112,22.413,3.439,30.212
	c3.872,3.161,9.867,5.52,16.64,4.52c10.672-1.575,20.003-11.57,18.207-24.376C241.903,31.708,230.517,23.474,219.018,25.392z"/>
<path fill-rule="evenodd" clip-rule="evenodd" fill="#FFFFFF" d="M266.039,37.666c5.43-1.071,9.807,2.96,10.578,7.412
	c0.967,5.58-2.969,9.871-7.418,10.646c-8.133,1.417-13.938-7.582-8.916-14.65C261.424,39.467,263.353,38.196,266.039,37.666
	L266.039,37.666z M284.795,48.279V45.36c-0.544-1.213-0.232-4.756-3.484-8.989c-3.174-4.131-7.826-6.932-14.22-6.851
	c-5.148,0.065-9.176,2.572-11.688,5.076c-2.55,2.541-4.926,6.593-5.006,11.842c-0.268,17.438,23.38,24.53,32.33,8.308
	C284.589,51.371,284.381,49.196,284.795,48.279z"/>
<path fill-rule="evenodd" clip-rule="evenodd" fill="#FFFFFF" d="M114.185,5.791h-1.118c-0.76,0.408-2.191,0.59-3.055,2.369
	c-0.607,1.25-0.386,3.417-0.386,4.964c0,10.772,0.193,22.431-0.015,33.002c-0.062,3.112,0.669,6.588,1.764,9.026
	c1.306,2.91,2.5,4.548,4.41,6.577c1.699,1.805,3.662,3.331,6.404,4.621c2.428,1.141,5.713,2.115,9.051,2.024
	c3.142-0.085,5.301-3.357,3.49-6.136c-0.71-1.09-1.654-1.788-3.493-1.888c-8.146-0.44-13.501-6.059-13.565-14.068l-0.01-33
	c0-1.631,0.237-3.691-0.338-5.049C116.533,6.364,115.031,6.217,114.185,5.791z"/>
<path fill-rule="evenodd" clip-rule="evenodd" fill="#FFFFFF" d="M134.375,21.928c-3.227,0.761-3.37,2.341-3.37,6.021l-0.002,18.654
	c0.006,3.405,2.486,4.911,4.92,4.359c1.125-0.255,2.172-1.169,2.609-2.01c0.609-1.17,0.446-2.53,0.446-4.105l0.002-18.659
	C138.975,23.545,137.007,21.308,134.375,21.928z"/>
<path fill-rule="evenodd" clip-rule="evenodd" fill="#FFFFFF" d="M135.559,5.791h-1.156c-0.897,0.438-4.71,0.977-4.573,5.422
	c0.084,2.722,2.313,4.916,5.074,4.962c2.847,0.048,5.081-2.137,5.229-4.808c0.124-2.245-0.98-3.933-2.702-4.907
	C136.884,6.151,136.135,6.072,135.559,5.791z"/>
<path fill-rule="evenodd" clip-rule="evenodd" fill="#FFFFFF" d="M275.657,5.947h6.581v2.076h-2.245v7.71h-2.106v-7.71h-2.229V5.947
	L275.657,5.947z M284.34,5.947h2.512l1.836,5.863l1.84-5.863h2.421l1.244,9.786h-2.003l-0.859-6.886l-2.161,6.886h-0.959
	l-2.208-6.947l-0.82,6.947h-2.043L284.34,5.947z"/>
</svg>
