<?xml version="1.0" encoding="utf-8"?>
<!-- Generator: Adobe Illustrator 24.0.2, SVG Export Plug-In . SVG Version: 6.00 Build 0)  -->
<svg version="1.1" id="Layer_1" xmlns="http://www.w3.org/2000/svg" xmlns:xlink="http://www.w3.org/1999/xlink" x="0px" y="0px"
	 viewBox="0 0 180 60" style="enable-background:new 0 0 180 60;" xml:space="preserve">
<style type="text/css">
	.st0{fill-rule:evenodd;clip-rule:evenodd;fill:#75777D;}
	.st1{fill-rule:evenodd;clip-rule:evenodd;fill:#00984F;}
	.st2{fill-rule:evenodd;clip-rule:evenodd;fill:#26B67F;}
</style>
<g>
	<path class="st0" d="M143.1,23.6h1h6.9v1.8H144v4.2h5.8v1.8H144v4.1h6.9v1.8H144h-1h-0.9V23.6H143.1z M136.9,33.8V23.6h1.9v13.7
		h-1.8l-6.5-10.1 M130.6,27.2v10.1h-1.9V23.6h1.8l6.5,10.2 M123.7,31.3l3.2,6h-2.3l-2.9-5.8h-2.9v5.8h-1.9V23.6h0.8h1.1h3.5
		c0.8,0,1.5,0.2,2.1,0.5c0.6,0.3,1.1,0.8,1.4,1.4c0.3,0.6,0.5,1.3,0.5,2.1c0,0.8-0.2,1.5-0.5,2.1c-0.3,0.6-0.8,1.1-1.4,1.4
		C124.2,31.1,123.9,31.2,123.7,31.3z M118.8,29.7h3.6c0.4,0,0.7-0.1,1-0.3c0.3-0.2,0.5-0.4,0.7-0.8c0.2-0.3,0.2-0.7,0.2-1.1
		c0-0.4-0.1-0.8-0.2-1.1s-0.4-0.6-0.6-0.8c-0.3-0.2-0.6-0.3-1-0.3h-3.6L118.8,29.7L118.8,29.7z M111.9,32.5l-2.1-6.2l-2.1,6.2H111.9
		z M109,23.6h1.6l5.1,13.7h-2.1l-1-3H107l-1,3h-2.1L109,23.6z M98.4,29l5,8.4H101l-4-6.7l-2.2,2.7v4h-1.9V23.6h1.9v7.2l5.6-7.2h2.4
		L98.4,29z M82.9,23.6h1h6.9v1.8h-6.9v4.2h5.8v1.8h-5.8v4.1h6.9v1.8h-6.9h-1H82V23.6H82.9z M75,37.5c-0.7,0-1.4-0.2-2-0.4
		s-1.1-0.7-1.5-1.2l1.6-1.1c0.2,0.3,0.4,0.6,0.8,0.7c0.3,0.2,0.7,0.3,1.2,0.3c0.8,0,1.3-0.2,1.7-0.7s0.6-1.1,0.6-2v-9.4h1.9V33
		c0,1-0.2,1.8-0.5,2.4c-0.3,0.7-0.8,1.2-1.5,1.5C76.7,37.3,75.9,37.5,75,37.5z M61.9,23.6h1.9v11.9h6.9v1.8h-6.9h-1h-1L61.9,23.6
		L61.9,23.6z"/>
	<path class="st0" d="M120.3,52.5c0-0.7-0.2-1.2-0.5-1.5c-0.3-0.4-0.8-0.5-1.4-0.5c-0.6,0-1.1,0.2-1.4,0.5c-0.3,0.3-0.5,0.8-0.5,1.4
		v6h-1.8v-9.4h1.8v1.3c0.3-0.4,0.6-0.7,1-1c0.5-0.3,1-0.5,1.6-0.5c0.7,0,1.2,0.2,1.7,0.4c0.5,0.3,0.8,0.7,1.1,1.3c0,0,0,0.1,0,0.1
		c0.3-0.6,0.7-1,1.1-1.4c0.5-0.3,1-0.5,1.6-0.5c0.7,0,1.3,0.2,1.7,0.4c0.5,0.3,0.8,0.7,1.1,1.3c0.2,0.6,0.4,1.3,0.4,2.1v5.7h-1.8
		v-5.7c0-0.7-0.2-1.2-0.5-1.5c-0.4-0.4-0.8-0.5-1.5-0.5c-0.6,0-1,0.2-1.3,0.5c-0.3,0.4-0.5,0.8-0.5,1.5l0,0c0,0,0,0,0,0.1v5.7h-1.8
		V52.5z M112.2,51.1c-0.2-0.2-0.4-0.4-0.6-0.5c-0.2-0.1-0.5-0.2-0.9-0.2c-0.6,0-1,0.2-1.4,0.5c-0.3,0.3-0.5,0.8-0.5,1.4v6H107v-9.4
		h1.8v1.3c0.3-0.4,0.6-0.7,0.9-1c0.5-0.3,1-0.5,1.5-0.5c0.4,0,0.8,0.1,1.2,0.2c0.4,0.1,0.6,0.3,0.9,0.6L112.2,51.1z M102.5,54.2
		h-2.6c-0.5,0-0.8,0.1-1.1,0.3c-0.2,0.2-0.4,0.5-0.4,1c0,0.5,0.2,0.8,0.5,1.1c0.3,0.2,0.8,0.4,1.4,0.4c0.7,0,1.2-0.1,1.6-0.2
		s0.5-0.4,0.5-0.7L102.5,54.2L102.5,54.2z M100.2,58.4c-1.2,0-2-0.2-2.6-0.7c-0.6-0.5-0.9-1.2-0.9-2.2c0-0.9,0.3-1.6,0.8-2.1
		c0.5-0.5,1.3-0.7,2.4-0.7h2.6v-0.4c0-0.6-0.2-1.1-0.5-1.4c-0.3-0.3-0.8-0.5-1.4-0.5c-0.4,0-0.7,0.1-1.1,0.2c-0.4,0.1-0.7,0.3-1,0.5
		L97.2,50c0.4-0.4,0.8-0.8,1.4-1c0.6-0.2,1.2-0.4,2-0.4c0.8,0,1.4,0.1,2,0.4c0.6,0.3,1,0.7,1.3,1.2c0.3,0.5,0.4,1.2,0.4,1.9v6.1
		h-1.8v-0.7c-0.1,0.1-0.3,0.3-0.4,0.4c-0.2,0.2-0.5,0.3-0.8,0.4C101,58.4,100.6,58.4,100.2,58.4z M92.9,52.7c0-0.6-0.2-1.1-0.5-1.5
		c-0.3-0.4-0.8-0.5-1.4-0.5c-0.6,0-1,0.2-1.4,0.5s-0.5,0.7-0.5,1.3v5.8h-1.8V45.5h1.8v4.9c0.2-0.4,0.6-0.7,0.9-0.9
		c0.4-0.3,1-0.4,1.5-0.4c1,0,1.8,0.3,2.3,1c0.5,0.6,0.8,1.6,0.8,2.7v5.5h-1.8L92.9,52.7L92.9,52.7z M76.5,45h1h0.9h3.3
		c0.8,0,1.5,0.2,2.1,0.5c0.6,0.3,1.1,0.8,1.4,1.4c0.3,0.6,0.5,1.3,0.5,2.1s-0.2,1.5-0.5,2.1s-0.8,1.1-1.4,1.4
		c-0.6,0.3-1.3,0.5-2.1,0.5h-3.3v5.1h-1.9L76.5,45L76.5,45z M78.4,46.8v4.6h3.3c0.4,0,0.8-0.1,1.1-0.3s0.5-0.4,0.7-0.8
		c0.2-0.4,0.2-0.7,0.2-1.2c0-0.5-0.1-0.9-0.2-1.2c-0.2-0.3-0.4-0.6-0.7-0.8c-0.3-0.2-0.7-0.3-1.1-0.3L78.4,46.8L78.4,46.8z"/>
	<path class="st1" d="M137.3,55.4H132l-1,2.9h-2l4.9-13.2h1.6l4.9,13.2h-2L137.3,55.4z M132.6,53.6h4.1l-2.1-6L132.6,53.6z"/>
	<path class="st1" d="M143.6,46.8v9.7h2.4c1,0,1.7-0.3,2.3-0.8c0.5-0.5,0.8-1.2,0.8-2.1v-3.9c0-0.9-0.3-1.6-0.8-2.1
		c-0.5-0.5-1.3-0.8-2.3-0.8L143.6,46.8L143.6,46.8z M141.7,45h1.3h0.6h2.3c1.1,0,2,0.2,2.7,0.6c0.8,0.4,1.3,0.9,1.7,1.6
		c0.4,0.7,0.6,1.6,0.6,2.6v3.7c0,1-0.2,1.8-0.6,2.6c-0.4,0.7-1,1.2-1.7,1.6c-0.8,0.4-1.7,0.6-2.7,0.6h-2.3H143h-1.3L141.7,45
		L141.7,45z"/>
	<path class="st2" d="M19.5,24.5v-5.6H5.9c-1.4,0-2.6,1.2-2.6,2.6v10.4c0,3.9,3.2,7.2,7.2,7.2h6c1.7,0,3.1,1.4,3.1,3.1v7.4
		c0,2.8,2.3,5.1,5.1,5.1h5.6c5.2,0,9.5-4.2,9.5-9.5V28.3c0-5.2-4.2-9.5-9.5-9.5h-3.7v5.6h3.7c2.1,0,3.8,1.7,3.8,3.8v16.8
		c0,2.1-1.7,3.8-3.8,3.8h-5.1v-7.7c0-4.4-3.6-7.9-7.9-7.9h-6.8c-0.8,0-1.5-0.7-1.5-1.5v-7.3L19.5,24.5L19.5,24.5z"/>
	<path class="st1" d="M33.4,31.7v5.6h-3.7c-5.2,0-9.5-4.2-9.5-9.5V11.1c0-5.2,4.2-9.5,9.5-9.5h5.6c2.8,0,5.1,2.3,5.1,5.1v7.4
		c0,1.7,1.4,3.1,3.1,3.1h6c3.9,0,7.2,3.2,7.2,7.2v10.4c0,1.4-1.2,2.6-2.6,2.6H40.6v-5.6h10.5v-7.2c0-0.8-0.7-1.5-1.5-1.5h-6.8
		c-4.4,0-7.9-3.6-7.9-7.9V7.2h-5.1c-2.1,0-3.8,1.7-3.8,3.8v16.8c0,2.1,1.7,3.8,3.8,3.8L33.4,31.7L33.4,31.7z"/>
	<rect x="41" y="40.5" class="st0" width="109.9" height="1.5"/>
</g>
</svg>
