<?xml version="1.0" encoding="UTF-8"?>
<!-- Generator: Adobe Illustrator 24.0.2, SVG Export Plug-In . SVG Version: 6.00 Build 0)  -->
<svg version="1.1" id="Layer_1" xmlns="http://www.w3.org/2000/svg" xmlns:xlink="http://www.w3.org/1999/xlink" x="0px" y="0px" viewBox="0 0 700 700" style="enable-background:new 0 0 700 700;" xml:space="preserve">
<style type="text/css">
	.st0{fill-rule:evenodd;clip-rule:evenodd;fill:#F7F7F7;}
</style>
<g>
	<path class="st0" d="M495,307.6v-65.4H336.9c-16.4,0-29.7,13.4-29.7,29.7v120.2c0,45.7,37.3,83.1,83.1,83.1h69.9   c19.7,0,35.6,16.1,35.6,35.6v86.5c0,32.7,26.6,59.3,59.3,59.3h65.4c60.6,0,109.9-49.3,109.9-109.9V352   c0-60.6-49.3-109.9-109.9-109.9h-42.5v65.4h42.5c24.5,0,44.5,20,44.5,44.5v194.5c0,24.5-20,44.5-44.5,44.5h-59.5v-89.1   c0-50.7-41.4-92-92-92h-78.6c-9.8,0-17.9-8-17.9-17.9v-84.7H495V307.6z"/>
	<path class="st0" d="M656.3,390.6V456h-42.5C553.3,456,504,406.7,504,346.1V151.4c0-60.6,49.3-109.9,109.9-109.9h65.4   c32.7,0,59.3,26.6,59.3,59.3V187c0,19.7,16.1,35.6,35.6,35.6h69.9c45.7,0,83.1,37.3,83.1,83.1v120.2c0,16.4-13.4,29.7-29.7,29.7   H739.6v-65.4H862V306c0-9.8-8-17.9-17.9-17.9h-78.8c-50.7,0-92-41.4-92-92v-89.1h-59.5c-24.5,0-44.5,20-44.5,44.5V346   c0,24.5,20,44.5,44.5,44.5h42.5V390.6z"/>
</g>
</svg>