<?xml version="1.0" encoding="utf-8"?>
<!-- Generator: Adobe Illustrator 16.0.0, SVG Export Plug-In . SVG Version: 6.00 Build 0)  -->
<!DOCTYPE svg PUBLIC "-//W3C//DTD SVG 1.1//EN" "http://www.w3.org/Graphics/SVG/1.1/DTD/svg11.dtd" [
	<!ENTITY ns_extend "http://ns.adobe.com/Extensibility/1.0/">
	<!ENTITY ns_ai "http://ns.adobe.com/AdobeIllustrator/10.0/">
	<!ENTITY ns_graphs "http://ns.adobe.com/Graphs/1.0/">
	<!ENTITY ns_vars "http://ns.adobe.com/Variables/1.0/">
	<!ENTITY ns_imrep "http://ns.adobe.com/ImageReplacement/1.0/">
	<!ENTITY ns_sfw "http://ns.adobe.com/SaveForWeb/1.0/">
	<!ENTITY ns_custom "http://ns.adobe.com/GenericCustomNamespace/1.0/">
	<!ENTITY ns_adobe_xpath "http://ns.adobe.com/XPath/1.0/">
]>
<svg version="1.1" id="Layer_1" xmlns:x="&ns_extend;" xmlns:i="&ns_ai;" xmlns:graph="&ns_graphs;"
	 xmlns="http://www.w3.org/2000/svg" xmlns:xlink="http://www.w3.org/1999/xlink" x="0px" y="0px" width="142.333px" height="80px"
	 viewBox="0 0 142.333 80" enable-background="new 0 0 142.333 80" xml:space="preserve">
<metadata>
	<sfw  xmlns="&ns_sfw;">
		<slices></slices>
		<sliceSourceBounds  width="132.149" height="60" bottomLeftOrigin="true" y="-70" x="44.092"></sliceSourceBounds>
		<optimizationSettings>
			<targetSettings  fileFormat="PNG24Format" targetSettingsID="0">
				<PNG24Format  transparency="true" filtered="false" interlaced="false" noMatteColor="false" matteColor="#FFFFFF">
					</PNG24Format>
			</targetSettings>
		</optimizationSettings>
	</sfw>
</metadata>
<g>
	<polygon fill="#FFFFFF" points="5.092,10.001 5.092,55.41 14.15,55.41 14.15,40.634 14.274,40.634 24.178,55.41 35.598,55.41 
		23.637,39.371 35.29,26.218 24.178,26.218 14.15,37.751 14.15,10.001 	"/>
	<path fill="#FFFFFF" d="M37.587,40.813c0-2.322,0.423-4.423,1.269-6.307c0.845-1.881,2.003-3.495,3.475-4.836
		c1.469-1.342,3.2-2.373,5.189-3.092c1.995-0.721,4.12-1.083,6.374-1.083c2.258,0,4.382,0.363,6.371,1.083
		c1.995,0.719,3.725,1.75,5.196,3.092c1.47,1.341,2.629,2.955,3.474,4.836c0.846,1.884,1.269,3.984,1.269,6.307
		c0,2.321-0.423,4.427-1.269,6.309c-0.845,1.881-2.004,3.493-3.474,4.835c-1.472,1.342-3.201,2.374-5.196,3.094
		c-1.989,0.719-4.113,1.08-6.371,1.08c-2.254,0-4.379-0.361-6.374-1.08c-1.989-0.72-3.721-1.752-5.189-3.094
		c-1.472-1.342-2.63-2.954-3.475-4.835C38.01,45.24,37.587,43.135,37.587,40.813 M46.646,40.813c0,2.203,0.633,3.984,1.901,5.346
		c1.268,1.361,3.054,2.044,5.347,2.044c2.295,0,4.076-0.683,5.344-2.044c1.269-1.361,1.903-3.143,1.903-5.346
		c0-2.202-0.635-3.983-1.903-5.346c-1.268-1.361-3.049-2.043-5.344-2.043c-2.293,0-4.079,0.682-5.347,2.043
		C47.278,36.83,46.646,38.611,46.646,40.813z"/>
	<polygon fill="#FFFFFF" points="74.368,46.401 89.583,33.426 74.731,33.426 74.731,26.217 100.093,26.217 100.093,34.867 
		84.149,48.203 100.456,48.203 100.456,55.411 74.368,55.411 	"/>
	<path fill="#FFFFFF" d="M104.626,40.813c0-2.322,0.422-4.423,1.268-6.307c0.846-1.881,2.004-3.495,3.475-4.836
		c1.471-1.342,3.201-2.373,5.191-3.092c1.994-0.721,4.117-1.083,6.375-1.083c2.256,0,4.379,0.363,6.369,1.083
		c1.994,0.719,3.725,1.75,5.195,3.092c1.471,1.341,2.629,2.955,3.475,4.836c0.846,1.884,1.268,3.984,1.268,6.307
		c0,2.321-0.422,4.427-1.268,6.309c-0.846,1.881-2.004,3.493-3.475,4.835s-3.201,2.374-5.195,3.094
		c-1.99,0.719-4.113,1.08-6.369,1.08c-2.258,0-4.381-0.361-6.375-1.08c-1.99-0.72-3.721-1.752-5.191-3.094s-2.629-2.954-3.475-4.835
		C105.048,45.24,104.626,43.135,104.626,40.813 M113.685,40.813c0,2.203,0.633,3.984,1.902,5.346
		c1.268,1.361,3.053,2.044,5.348,2.044s4.074-0.683,5.342-2.044s1.902-3.143,1.902-5.346c0-2.202-0.635-3.983-1.902-5.346
		c-1.268-1.361-3.047-2.043-5.342-2.043s-4.08,0.682-5.348,2.043C114.317,36.83,113.685,38.611,113.685,40.813z"/>
	<rect x="41.459" y="10" fill="#FFFFFF" width="25.726" height="7.207"/>
	<rect x="108.069" y="62.792" fill="#FFFFFF" width="25.729" height="7.208"/>
</g>
</svg>
