<?xml version="1.0" encoding="utf-8"?>
<!-- Generator: Adobe Illustrator 16.0.0, SVG Export Plug-In . SVG Version: 6.00 Build 0)  -->
<!DOCTYPE svg PUBLIC "-//W3C//DTD SVG 1.1//EN" "http://www.w3.org/Graphics/SVG/1.1/DTD/svg11.dtd" [
	<!ENTITY ns_extend "http://ns.adobe.com/Extensibility/1.0/">
	<!ENTITY ns_ai "http://ns.adobe.com/AdobeIllustrator/10.0/">
	<!ENTITY ns_graphs "http://ns.adobe.com/Graphs/1.0/">
	<!ENTITY ns_vars "http://ns.adobe.com/Variables/1.0/">
	<!ENTITY ns_imrep "http://ns.adobe.com/ImageReplacement/1.0/">
	<!ENTITY ns_sfw "http://ns.adobe.com/SaveForWeb/1.0/">
	<!ENTITY ns_custom "http://ns.adobe.com/GenericCustomNamespace/1.0/">
	<!ENTITY ns_adobe_xpath "http://ns.adobe.com/XPath/1.0/">
]>
<svg version="1.1" id="Layer_1" xmlns:x="&ns_extend;" xmlns:i="&ns_ai;" xmlns:graph="&ns_graphs;"
	 xmlns="http://www.w3.org/2000/svg" xmlns:xlink="http://www.w3.org/1999/xlink" x="0px" y="0px" width="180px" height="60px"
	 viewBox="40 128.5 180 60" enable-background="new 40 128.5 180 60" xml:space="preserve">
<metadata>
	<sfw  xmlns="&ns_sfw;">
		<slices></slices>
		<sliceSourceBounds  width="173.329" height="46.123" y="140.877" x="41.921" bottomLeftOrigin="true"></sliceSourceBounds>
	</sfw>
</metadata>
<g>
	<path fill="#486C19" d="M59.387,138.861c-3.012,0-5.435,2.423-5.435,5.435c0,3.011,2.423,5.434,5.435,5.434
		c3.011,0,5.435-2.423,5.435-5.434C64.822,141.285,62.398,138.861,59.387,138.861 M63.353,144.296c0,2.13-1.763,3.893-3.893,3.893
		c-2.129,0-3.893-1.763-3.893-3.893s1.763-3.893,3.893-3.893C61.59,140.403,63.353,142.167,63.353,144.296"/>
	<path fill="#486C19" d="M59.534,133.5c-9.475,0-17.113,7.711-17.113,17.113v11.898c0,9.399,7.638,17.112,17.113,17.112
		c9.4,0,17.112-7.639,17.112-17.112v-11.898C76.573,141.211,68.935,133.5,59.534,133.5 M58.433,161.996
		c-2.131,4.848-6.61,8.374-11.825,9.181c-1.763-2.57-2.718-5.581-2.718-8.666v-0.515H58.433z M58.726,164.64v0.368
		c0,4.553-1.983,8.887-5.435,11.824c-2.204-0.954-4.187-2.424-5.729-4.26C52.189,171.544,56.302,168.679,58.726,164.64
		 M59.534,170.002c0.881,2.791,2.423,5.361,4.627,7.418c-1.469,0.439-3.011,0.733-4.627,0.733c-1.543,0-3.159-0.22-4.627-0.733
		C57.037,175.363,58.652,172.793,59.534,170.002 M53.658,153.771c1.836,0,3.599,0.661,4.994,1.909
		c-0.954,1.248-1.615,2.719-1.762,4.261c-2.57-1.028-4.406-3.379-4.7-6.17H53.658z M65.63,153.771h0.367l-7.491,5.435
		C59.387,155.974,62.252,153.771,65.63,153.771 M59.46,160.454c-0.073,0-0.073,0-0.147,0l7.639-5.509
		c-0.881,3.231-3.746,5.509-7.125,5.509H59.46z M68.715,153.036v-0.734H65.63c-2.204,0-4.333,0.808-6.023,2.351
		c-1.616-1.47-3.746-2.351-6.022-2.351H50.5v0.734c0,3.012,1.542,5.803,4.113,7.491H43.89v-9.915c0-8.593,6.977-15.57,15.57-15.57
		c8.593,0,15.57,6.977,15.57,15.57v9.915H64.602C67.172,158.839,68.715,156.048,68.715,153.036 M65.703,176.832
		c-3.451-2.938-5.435-7.271-5.435-11.824v-0.222c2.497,4.041,6.536,6.904,11.163,7.859C69.89,174.408,67.906,175.878,65.703,176.832
		 M75.104,161.996v0.515c0,3.085-0.955,6.096-2.645,8.666c-5.36-0.807-9.768-4.26-11.897-9.181H75.104z"/>
	<polygon fill="#486C19" points="102.058,149.438 96.183,155.827 102.058,162.877 97.945,162.877 92.952,156.708 92.952,162.877 
		89.793,162.877 89.793,142.607 92.952,142.607 92.952,155.313 98.019,149.438 	"/>
	<path fill="#486C19" d="M108.962,163.245c-2.129,0-3.745-0.661-4.92-1.982c-1.175-1.322-1.763-3.012-1.763-5.068
		s0.587-3.746,1.836-5.068c1.249-1.322,2.864-1.983,4.92-1.983c0.881,0,1.763,0.221,2.497,0.587
		c0.734,0.368,1.322,0.882,1.763,1.617v-1.836h3.158v13.44h-3.158v-1.836c-0.367,0.661-0.955,1.175-1.835,1.542
		C110.651,163.025,109.77,163.245,108.962,163.245 M109.403,160.38c1.322,0,2.276-0.439,2.938-1.248
		c0.661-0.808,1.028-1.836,1.028-3.084c0-1.249-0.368-2.277-1.028-3.085c-0.661-0.809-1.689-1.249-2.938-1.249
		c-1.249,0-2.204,0.367-2.865,1.175c-0.734,0.808-1.028,1.836-1.028,3.084c0,1.249,0.367,2.277,1.028,3.085
		C107.272,160.014,108.227,160.38,109.403,160.38"/>
	<path fill="#486C19" d="M130.849,161.189c-1.249,1.321-3.012,1.982-5.215,1.982c-2.204,0-3.893-0.661-5.215-1.982
		c-1.248-1.322-1.909-3.013-1.909-5.068c0-2.057,0.661-3.746,1.909-5.068c1.249-1.323,3.011-1.983,5.215-1.983
		c2.203,0,3.893,0.66,5.215,1.983c1.248,1.322,1.909,3.011,1.909,5.068C132.831,158.177,132.171,159.867,130.849,161.189
		 M122.769,159.205c0.735,0.809,1.689,1.175,2.938,1.175s2.204-0.366,2.938-1.175c0.735-0.807,1.028-1.836,1.028-3.084
		c0-1.249-0.367-2.277-1.028-3.085c-0.734-0.808-1.689-1.175-2.938-1.175s-2.203,0.368-2.938,1.175
		c-0.734,0.808-1.028,1.836-1.028,3.085C121.741,157.442,122.108,158.471,122.769,159.205"/>
	<path fill="#486C19" d="M143.04,162.877v-13.439h3.158v1.909c0.882-1.47,2.351-2.204,4.406-2.204c3.305,0,4.921,1.763,4.921,5.362
		v8.446h-3.159v-7.124c0-1.469-0.22-2.498-0.66-3.158c-0.44-0.661-1.175-0.955-2.276-0.955c-1.028,0-1.836,0.293-2.35,0.955
		c-0.588,0.661-0.809,1.542-0.809,2.791v7.417H143.04z"/>
	<path fill="#486C19" d="M170.729,155.46c0,0.367,0,0.955-0.073,1.763h-9.988c0.072,1.028,0.366,1.909,1.027,2.424
		c0.662,0.587,1.543,0.881,2.719,0.881c1.468,0,2.497-0.514,3.011-1.542h3.158c-0.221,1.248-0.882,2.277-2.057,3.084
		c-1.176,0.808-2.498,1.176-4.112,1.176c-2.131,0-3.819-0.661-4.995-1.91c-1.248-1.249-1.836-3.011-1.836-5.141
		c0-2.13,0.588-3.893,1.836-5.141c1.249-1.249,2.864-1.91,4.921-1.91c1.91,0,3.452,0.587,4.7,1.763
		C170.142,152.008,170.729,153.55,170.729,155.46 M160.667,154.799h6.977c0-1.028-0.294-1.836-0.881-2.423
		c-0.588-0.587-1.396-0.809-2.498-0.809c-1.101,0-1.982,0.294-2.57,0.881C161.033,153.036,160.667,153.844,160.667,154.799"/>
	<polygon fill="#486C19" points="185.124,149.438 179.322,155.827 185.124,162.877 181.011,162.877 176.091,156.708 
		176.091,162.877 172.932,162.877 172.932,142.607 176.091,142.607 176.091,155.313 181.158,149.438 	"/>
	<path fill="#486C19" d="M192.027,163.245c-2.13,0-3.745-0.661-4.92-1.982c-1.177-1.322-1.764-3.012-1.764-5.068
		s0.587-3.746,1.836-5.068c1.249-1.322,2.866-1.983,4.922-1.983c0.879,0,1.763,0.221,2.496,0.587
		c0.734,0.368,1.322,0.882,1.763,1.617v-1.836h3.159v13.44h-3.159v-1.836c-0.366,0.661-0.954,1.175-1.835,1.542
		C193.717,163.025,192.909,163.245,192.027,163.245 M192.541,160.38c1.323,0,2.278-0.439,2.938-1.248
		c0.662-0.808,1.029-1.836,1.029-3.084c0-1.249-0.367-2.277-1.029-3.085c-0.659-0.809-1.688-1.249-2.938-1.249
		c-1.248,0-2.202,0.367-2.864,1.175c-0.732,0.808-1.027,1.836-1.027,3.084c0,1.249,0.367,2.277,1.027,3.085
		C190.339,160.014,191.293,160.38,192.541,160.38"/>
	<path fill="#486C19" d="M212.592,142.607h3.158v20.27h-3.158v-1.836c-0.367,0.662-0.955,1.176-1.836,1.543
		c-0.808,0.367-1.69,0.588-2.497,0.588c-2.129,0-3.746-0.661-4.921-1.982c-1.175-1.322-1.762-3.013-1.762-5.068
		c0-2.057,0.587-3.746,1.834-5.068c1.249-1.323,2.866-1.983,4.922-1.983c0.881,0,1.763,0.22,2.498,0.587
		c0.733,0.368,1.321,0.881,1.762,1.616V142.607z M208.773,160.38c1.321,0,2.276-0.439,2.938-1.248
		c0.66-0.808,1.027-1.836,1.027-3.084c0-1.249-0.367-2.277-1.027-3.085c-0.661-0.809-1.69-1.249-2.938-1.249
		c-1.248,0-2.203,0.367-2.865,1.175c-0.733,0.808-1.027,1.836-1.027,3.084c0,1.249,0.366,2.277,1.027,3.085
		C206.57,160.014,207.525,160.38,208.773,160.38"/>
	<rect x="107.125" y="166.99" fill="#486C19" width="0.662" height="7.712"/>
	<path fill="#486C19" d="M111.679,169.194c-1.542,0-2.791,1.247-2.791,2.79s1.249,2.792,2.791,2.792
		c1.542,0,2.792-1.249,2.792-2.792S113.222,169.194,111.679,169.194 M111.679,174.114c-1.175,0-2.129-0.955-2.129-2.13
		s0.955-2.129,2.129-2.129c1.175,0,2.13,0.954,2.13,2.129C113.736,173.159,112.854,174.114,111.679,174.114"/>
	<polygon fill="#486C19" points="119.685,169.34 118.656,169.34 116.233,171.544 116.233,167.284 115.499,167.284 115.499,174.702 
		116.233,174.702 116.233,172.204 118.803,174.702 119.758,174.702 116.821,171.91 	"/>
	<path fill="#486C19" d="M124.532,170.295c-0.514-0.661-1.249-1.101-2.13-1.101c-1.542,0-2.791,1.247-2.791,2.79
		s1.249,2.792,2.791,2.792c0.881,0,1.616-0.368,2.13-1.102v0.955h0.734v-5.361h-0.734V170.295z M122.402,174.114
		c-1.175,0-2.13-0.955-2.13-2.13s0.955-2.129,2.13-2.129c1.175,0,2.13,0.954,2.13,2.129S123.577,174.114,122.402,174.114"/>
	<rect x="126.662" y="166.99" fill="#486C19" width="0.661" height="7.712"/>
	<path fill="#486C19" d="M131.216,169.194c-0.734,0-1.396,0.293-1.762,0.882v-0.736h-0.662v5.362h0.662v-2.792
		c0-1.247,0.66-1.982,1.689-1.982c0.881,0,1.469,0.588,1.469,1.469v3.306h0.734v-3.306
		C133.271,170.076,132.465,169.194,131.216,169.194"/>
	<path fill="#486C19" d="M137.019,169.194c-1.543,0-2.792,1.247-2.792,2.79s1.249,2.792,2.792,2.792c1.542,0,2.79-1.249,2.79-2.792
		S138.634,169.194,137.019,169.194 M137.019,174.114c-1.176,0-2.131-0.955-2.131-2.13s0.955-2.129,2.131-2.129
		c1.174,0,2.129,0.954,2.129,2.129S138.192,174.114,137.019,174.114"/>
	<path fill="#486C19" d="M149.062,171.764L149.062,171.764l-0.661-0.438v0.146c-0.073,0.514-0.22,0.955-0.366,1.322l-2.204-2.277
		c-0.44-0.439-0.734-0.808-0.734-1.395c0-0.736,0.588-1.249,1.396-1.249c0.734,0,1.248,0.367,1.469,1.028v0.074l0.588-0.368v-0.074
		c-0.295-0.881-1.102-1.395-2.13-1.395s-2.131,0.662-2.131,1.983c0,0.66,0.221,1.028,0.514,1.395c-0.88,0.44-1.395,1.175-1.395,2.13
		c0,1.322,0.955,2.131,2.424,2.131c0.881,0,1.616-0.295,2.13-0.882l0.808,0.882l0.661-0.368l-1.028-1.102
		C148.769,172.865,148.989,172.352,149.062,171.764 M145.391,171.029l2.203,2.352c-0.44,0.44-1.028,0.66-1.689,0.66
		c-1.028,0-1.688-0.514-1.688-1.469C144.216,171.91,144.655,171.325,145.391,171.029"/>
	<polygon fill="#486C19" points="157.362,169.34 156.334,169.34 153.837,171.544 153.837,167.284 153.176,167.284 153.176,174.702 
		153.837,174.702 153.837,172.204 156.48,174.702 157.435,174.702 154.497,171.91 	"/>
	<polygon fill="#486C19" points="160.006,173.821 158.097,169.34 157.362,169.34 159.639,174.702 160.373,174.702 162.649,169.34 
		161.915,169.34 	"/>
	<path fill="#486C19" d="M167.718,170.295c-0.514-0.661-1.249-1.101-2.131-1.101c-1.542,0-2.791,1.247-2.791,2.79
		s1.249,2.792,2.791,2.792c0.882,0,1.617-0.368,2.131-1.102v0.955h0.733v-5.361h-0.733V170.295z M165.587,174.114
		c-1.174,0-2.129-0.955-2.129-2.13s0.955-2.129,2.129-2.129c1.176,0,2.131,0.954,2.131,2.129S166.763,174.114,165.587,174.114"/>
	<rect x="169.773" y="166.99" fill="#486C19" width="0.662" height="7.712"/>
	<path fill="#486C19" d="M172.271,167.284c-0.295,0-0.515,0.22-0.515,0.516c0,0.292,0.22,0.514,0.515,0.514
		c0.294,0,0.514-0.222,0.514-0.514C172.785,167.504,172.492,167.284,172.271,167.284"/>
	<rect x="171.904" y="169.34" fill="#486C19" width="0.661" height="5.362"/>
	<path fill="#486C19" d="M175.282,167.872l-0.734,0.22v1.248h-1.103v0.662h1.103v3.305c0,0.515,0.146,0.882,0.44,1.102
		c0.221,0.222,0.588,0.294,1.028,0.294c0.221,0,0.439,0,0.661-0.072h0.072v-0.662h-0.072c-0.587,0.073-1.029,0.073-1.248-0.146
		c-0.147-0.146-0.221-0.294-0.221-0.662v-3.304h1.541v-0.661h-1.541v-1.322H175.282z"/>
	<path fill="#486C19" d="M179.983,169.194c-1.616,0-2.791,1.176-2.791,2.79c0,1.616,1.175,2.792,2.791,2.792
		c1.027,0,1.837-0.442,2.351-1.176l0.071-0.073l-0.585-0.368l-0.074,0.074c-0.296,0.588-0.955,0.881-1.69,0.881
		c-1.102,0-1.909-0.733-2.057-1.763h4.7v-0.073c0-0.074,0-0.074,0-0.146c0-0.074,0-0.074,0-0.147
		C182.627,170.663,181.746,169.194,179.983,169.194 M177.926,171.69c0.147-1.027,0.955-1.763,2.058-1.763
		c1.027,0,1.763,0.735,1.909,1.763H177.926z"/>
	<path fill="#486C19" d="M184.829,167.872l-0.732,0.22v1.248h-1.102v0.662h1.102v3.305c0,0.515,0.146,0.882,0.439,1.102
		c0.22,0.222,0.588,0.294,1.028,0.294c0.22,0,0.44,0,0.66-0.072h0.074v-0.662h-0.074c-0.586,0.073-1.027,0.073-1.248-0.146
		c-0.147-0.146-0.221-0.294-0.221-0.662v-3.304h1.543v-0.661h-1.543v-1.322H184.829z"/>
	<path fill="#486C19" d="M189.824,169.194c-0.734,0-1.396,0.293-1.763,0.882v-0.736h-0.66v5.362h0.66v-2.792
		c0-1.247,0.661-1.982,1.689-1.982c0.88,0,1.396,0.588,1.396,1.469v3.306h0.733v-3.306
		C191.954,170.076,191.146,169.194,189.824,169.194"/>
	<path fill="#486C19" d="M195.7,169.194c-1.543,0-2.791,1.247-2.791,2.79s1.248,2.792,2.791,2.792c1.542,0,2.79-1.249,2.79-2.792
		S197.242,169.194,195.7,169.194 M195.7,174.114c-1.175,0-2.13-0.955-2.13-2.13s0.955-2.129,2.13-2.129s2.129,0.954,2.129,2.129
		C197.757,173.159,196.875,174.114,195.7,174.114"/>
</g>
</svg>
