<svg xmlns="http://www.w3.org/2000/svg" width="147.6" height="56.81" viewBox="0 0 147.6 56.81">
  <title>logoa</title>
  <g>
    <path d="M143.05,23.6h7.88v1.83H144v4.15h5.84v1.84H144v4.06h6.89v1.83h-8.82V23.6Zm-6.14,10.25V23.6h1.91V37.31h-1.77l-6.46-10.09m0,0V37.31h-1.91V23.6h1.76l6.47,10.25m-13.23-2.54,3.17,6h-2.28l-2.92-5.8h-2.86v5.8h-1.92V23.58h5.46a4.31,4.31,0,0,1,2.09.5,3.44,3.44,0,0,1,1.4,1.38,4.13,4.13,0,0,1,.49,2.08,4.38,4.38,0,0,1-.49,2.08,3.44,3.44,0,0,1-1.4,1.38A4.17,4.17,0,0,1,123.68,31.31Zm-4.91-1.63h3.6a1.89,1.89,0,0,0,1-.26,2,2,0,0,0,.67-.76,2.6,2.6,0,0,0,.23-1.12,2.63,2.63,0,0,0-.23-1.12,1.86,1.86,0,0,0-.65-.76,1.74,1.74,0,0,0-1-.26h-3.6v4.28Zm-6.83,2.8-2.14-6.23-2.13,6.23Zm-3-8.88h1.64l5.07,13.72h-2.08l-1-3h-5.54l-1,3h-2.08ZM98.42,29l5,8.37h-2.35l-4-6.7-2.23,2.72v4H92.89V23.6h1.93v7.17l5.64-7.17h2.37ZM82.92,23.6H90.8v1.83H83.91v4.15h5.85v1.84H83.91v4.06H90.8v1.83H82V23.6ZM75,37.46A4.59,4.59,0,0,1,73,37a3.89,3.89,0,0,1-1.5-1.25l1.57-1.14a1.79,1.79,0,0,0,.77.72,2.56,2.56,0,0,0,1.17.27,2.2,2.2,0,0,0,1.74-.7,2.85,2.85,0,0,0,.61-2V23.6h1.93V33a5.61,5.61,0,0,1-.49,2.44,3.45,3.45,0,0,1-1.47,1.53A4.66,4.66,0,0,1,75,37.46ZM61.88,23.6H63.8V35.49h6.89v1.83H61.86V23.6Z" transform="translate(-3.35 -1.6)" fill="#75777d" fill-rule="evenodd"/>
    <path d="M120.28,52.54a2.26,2.26,0,0,0-.49-1.54,1.74,1.74,0,0,0-1.39-.54,1.92,1.92,0,0,0-1.4.48,1.83,1.83,0,0,0-.49,1.35v6h-1.84V48.83h1.84v1.31a3.21,3.21,0,0,1,1-1,2.72,2.72,0,0,1,1.55-.47,3.13,3.13,0,0,1,1.69.45,2.89,2.89,0,0,1,1.06,1.31s0,.08,0,.11a3.54,3.54,0,0,1,1.12-1.36,2.8,2.8,0,0,1,1.62-.51,3.31,3.31,0,0,1,1.74.45,3.12,3.12,0,0,1,1.11,1.31,5.45,5.45,0,0,1,.36,2.08v5.72h-1.84V52.53a2.1,2.1,0,0,0-.52-1.54,1.93,1.93,0,0,0-1.47-.54,1.69,1.69,0,0,0-1.33.52,2.2,2.2,0,0,0-.48,1.49h0v5.79h-1.85Zm-8.09-1.48a1.68,1.68,0,0,0-.62-.46,2.1,2.1,0,0,0-.86-.15,1.9,1.9,0,0,0-1.37.49,1.83,1.83,0,0,0-.49,1.35v6H107V48.83h1.85v1.33a3.43,3.43,0,0,1,.94-1,2.66,2.66,0,0,1,1.52-.46,3.59,3.59,0,0,1,1.17.18,2.58,2.58,0,0,1,.91.56Zm-9.66,3.11H99.94a1.61,1.61,0,0,0-1.09.32,1.23,1.23,0,0,0-.36,1A1.21,1.21,0,0,0,99,56.54a2.47,2.47,0,0,0,1.45.36,4,4,0,0,0,1.58-.24.73.73,0,0,0,.53-.7V54.17ZM100.2,58.4a4,4,0,0,1-2.6-.72,2.7,2.7,0,0,1-.86-2.2,2.61,2.61,0,0,1,.79-2.09,3.54,3.54,0,0,1,2.4-.71h2.6v-.4a2,2,0,0,0-.5-1.45,1.86,1.86,0,0,0-1.4-.5,4.18,4.18,0,0,0-1.1.16,3.32,3.32,0,0,0-1,.48l-1.35-.92a3.42,3.42,0,0,1,1.41-1,4.93,4.93,0,0,1,2-.36,4.48,4.48,0,0,1,2,.42,2.92,2.92,0,0,1,1.28,1.2,3.83,3.83,0,0,1,.43,1.89v6.06h-1.77v-.72a2.41,2.41,0,0,1-.41.37,3,3,0,0,1-.83.37A4.75,4.75,0,0,1,100.2,58.4Zm-7.32-5.66a2,2,0,0,0-.51-1.49,1.81,1.81,0,0,0-1.4-.52,1.86,1.86,0,0,0-1.35.46,1.66,1.66,0,0,0-.48,1.29v5.78H87.36V45.52h1.78v4.9a3.17,3.17,0,0,1,.92-.94A2.76,2.76,0,0,1,91.57,49a2.82,2.82,0,0,1,2.29,1,4.17,4.17,0,0,1,.82,2.74v5.52H92.89V52.74ZM76.51,45h5.11a4.13,4.13,0,0,1,2.07.51A3.67,3.67,0,0,1,85.09,47a4.29,4.29,0,0,1,.5,2.12,4.4,4.4,0,0,1-.5,2.12,3.42,3.42,0,0,1-1.4,1.42,4.13,4.13,0,0,1-2.07.51H78.35v5.12H76.49V45Zm1.86,1.77v4.57h3.32a2,2,0,0,0,1.06-.28,1.74,1.74,0,0,0,.71-.8,2.62,2.62,0,0,0,.25-1.18,2.65,2.65,0,0,0-.25-1.2,1.85,1.85,0,0,0-.71-.8,1.88,1.88,0,0,0-1.06-.29H78.37Z" transform="translate(-3.35 -1.6)" fill="#75777d" fill-rule="evenodd"/>
    <path d="M137.35,55.36H132l-1,2.9h-2l4.87-13.21h1.59l4.88,13.21h-2Zm-4.74-1.76h4.12l-2.06-6Z" transform="translate(-3.35 -1.6)" fill="#00984f" fill-rule="evenodd"/>
    <path d="M143.58,46.8v9.7H146a3.21,3.21,0,0,0,2.26-.76,2.78,2.78,0,0,0,.8-2.14V49.71a2.87,2.87,0,0,0-.8-2.14,3.15,3.15,0,0,0-2.26-.75h-2.4ZM141.71,45h4.21a6.14,6.14,0,0,1,2.72.56,3.89,3.89,0,0,1,1.72,1.61,5.17,5.17,0,0,1,.59,2.57v3.74a5.3,5.3,0,0,1-.59,2.57,3.91,3.91,0,0,1-1.72,1.62,6.28,6.28,0,0,1-2.72.55h-4.19V45Z" transform="translate(-3.35 -1.6)" fill="#00984f" fill-rule="evenodd"/>
    <path d="M19.52,24.51V18.88H5.9a2.55,2.55,0,0,0-2.55,2.55V31.78a7.17,7.17,0,0,0,7.15,7.16h6A3.07,3.07,0,0,1,19.58,42v7.45a5.12,5.12,0,0,0,5.11,5.11h5.63a9.48,9.48,0,0,0,9.46-9.47V28.34a9.47,9.47,0,0,0-9.46-9.46H26.66v5.63h3.66a3.84,3.84,0,0,1,3.83,3.83V45.09a3.85,3.85,0,0,1-3.83,3.84H25.2V41.25a8,8,0,0,0-7.93-7.93H10.5A1.54,1.54,0,0,1,9,31.78V24.49H19.52Z" transform="translate(-3.35 -1.6)" fill="#26b67f" fill-rule="evenodd"/>
    <path d="M33.41,31.66v5.63H29.75a9.47,9.47,0,0,1-9.46-9.46V11.06A9.47,9.47,0,0,1,29.75,1.6h5.63a5.11,5.11,0,0,1,5.11,5.11v7.41a3.07,3.07,0,0,0,3.06,3.06h6a7.17,7.17,0,0,1,7.15,7.16V34.69a2.56,2.56,0,0,1-2.55,2.56H40.58V31.62H51.12V24.37a1.54,1.54,0,0,0-1.54-1.54H42.8a8,8,0,0,1-7.93-7.92V7.23H29.75a3.84,3.84,0,0,0-3.83,3.83V27.82a3.84,3.84,0,0,0,3.83,3.83h3.66Z" transform="translate(-3.35 -1.6)" fill="#00984f" fill-rule="evenodd"/>
    <rect x="37.7" y="38.88" width="109.9" height="1.54" fill="#75777d"/>
  </g>
</svg>
