<svg xmlns="http://www.w3.org/2000/svg" width="130.71" height="50.3" viewBox="0 0 130.71 50.3">
  <title>logo-pharmad</title>
  <g>
    <path d="M127,24.33h7V26h-6.11v3.68h5.18v1.62h-5.18v3.6H134v1.62h-7.81V24.33Zm-5.44,9.08V24.33h1.69V36.47H121.7L116,27.53m0,0v8.94h-1.69V24.33h1.56l5.73,9.08m-11.71-2.25,2.8,5.31h-2l-2.59-5.13h-2.54v5.13h-1.7V24.32h4.84a3.94,3.94,0,0,1,1.85.43A3.12,3.12,0,0,1,111.75,26a3.68,3.68,0,0,1,.44,1.84,3.79,3.79,0,0,1-.44,1.84,3.12,3.12,0,0,1-1.24,1.23A4.29,4.29,0,0,1,109.86,31.16Zm-4.35-1.45h3.19a1.65,1.65,0,0,0,.86-.23,1.59,1.59,0,0,0,.58-.67,2.19,2.19,0,0,0,.21-1,2.22,2.22,0,0,0-.21-1,1.5,1.5,0,0,0-.57-.67,1.46,1.46,0,0,0-.86-.23h-3.19v3.78Zm-6.05,2.48-1.89-5.51-1.9,5.51Zm-2.62-7.86H98.3l4.48,12.16H101L100,33.82h-4.9l-.92,2.67H92.37Zm-9.36,4.74,4.42,7.42H89.81l-3.54-5.94L84.3,33v3.53H82.59V24.33H84.3v6.35l5-6.35h2.09ZM73.76,24.33h7V26H74.63v3.68h5.18v1.62H74.63v3.6h6.11v1.62H72.93V24.33Zm-7,12.28a4,4,0,0,1-1.78-.4,3.3,3.3,0,0,1-1.32-1.1l1.39-1a1.62,1.62,0,0,0,.68.64,2.26,2.26,0,0,0,1,.23,2,2,0,0,0,1.54-.61,2.5,2.5,0,0,0,.55-1.73v-8.3h1.7v8.29a4.85,4.85,0,0,1-.44,2.15,3,3,0,0,1-1.29,1.36A4.24,4.24,0,0,1,66.77,36.61ZM55.12,24.33h1.71V34.86h6.1v1.63H55.11V24.33Z" transform="translate(-3.29 -4.85)" fill="#75777d" fill-rule="evenodd"/>
    <path d="M106.84,50a2,2,0,0,0-.43-1.36,1.54,1.54,0,0,0-1.23-.48,1.71,1.71,0,0,0-1.24.42,1.66,1.66,0,0,0-.43,1.2V55h-1.64V46.68h1.64v1.16a2.84,2.84,0,0,1,.84-.88,2.46,2.46,0,0,1,1.38-.41,2.77,2.77,0,0,1,1.5.4,2.54,2.54,0,0,1,.94,1.16.25.25,0,0,0,0,.09,3.2,3.2,0,0,1,1-1.2,2.47,2.47,0,0,1,1.43-.45,2.89,2.89,0,0,1,1.54.4,2.62,2.62,0,0,1,1,1.16,4.69,4.69,0,0,1,.33,1.84V55h-1.63V50a1.85,1.85,0,0,0-.47-1.37,1.69,1.69,0,0,0-1.29-.47,1.52,1.52,0,0,0-1.19.46,2,2,0,0,0-.42,1.32h0V55h-1.64Zm-7.16-1.31a1.62,1.62,0,0,0-.55-.41,2,2,0,0,0-.76-.13,1.65,1.65,0,0,0-1.21.43,1.62,1.62,0,0,0-.44,1.2V55H95.09V46.68h1.63v1.17a3,3,0,0,1,.83-.87,2.33,2.33,0,0,1,1.35-.41,3.15,3.15,0,0,1,1,.16,2.19,2.19,0,0,1,.8.49Zm-8.56,2.76H88.83a1.44,1.44,0,0,0-1,.28,1.11,1.11,0,0,0-.31.87,1.07,1.07,0,0,0,.42.94,2.16,2.16,0,0,0,1.28.32,3.63,3.63,0,0,0,1.41-.21.65.65,0,0,0,.46-.62V51.41Zm-2.06,3.74a3.55,3.55,0,0,1-2.3-.64,2.85,2.85,0,0,1-.07-3.8,3.15,3.15,0,0,1,2.13-.63h2.3v-.35a1.83,1.83,0,0,0-.43-1.28A1.67,1.67,0,0,0,89.45,48a3.4,3.4,0,0,0-1,.15,2.65,2.65,0,0,0-.84.42l-1.2-.82a3,3,0,0,1,1.25-.88,4.37,4.37,0,0,1,1.73-.32,4.08,4.08,0,0,1,1.79.37A2.6,2.6,0,0,1,92.32,48a3.35,3.35,0,0,1,.38,1.67V55H91.13v-.64a2.28,2.28,0,0,1-.36.33A2.37,2.37,0,0,1,90,55,4.17,4.17,0,0,1,89.06,55.15Zm-6.48-5a1.82,1.82,0,0,0-.45-1.32,1.61,1.61,0,0,0-1.24-.47,1.68,1.68,0,0,0-1.2.41,1.5,1.5,0,0,0-.42,1.15V55H77.69V43.75h1.58v4.33a2.91,2.91,0,0,1,.81-.83,2.42,2.42,0,0,1,1.34-.4,2.52,2.52,0,0,1,2,.86,3.69,3.69,0,0,1,.72,2.43V55H82.59V50.14Zm-14.5-6.83H72.6a3.66,3.66,0,0,1,1.84.45A3.13,3.13,0,0,1,75.68,45a3.81,3.81,0,0,1,.44,1.88,4,4,0,0,1-.44,1.88A3,3,0,0,1,74.44,50a3.66,3.66,0,0,1-1.84.45H69.72V55H68.07V43.31Zm1.65,1.57v4h2.94a1.81,1.81,0,0,0,.94-.25,1.51,1.51,0,0,0,.63-.71,2.64,2.64,0,0,0,0-2.11,1.61,1.61,0,0,0-.63-.71,1.64,1.64,0,0,0-.94-.26H69.73Z" transform="translate(-3.29 -4.85)" fill="#75777d" fill-rule="evenodd"/>
    <path d="M122,52.45h-4.73L116.34,55h-1.77l4.32-11.7h1.4L124.61,55h-1.77Zm-4.2-1.55h3.65l-1.83-5.31Z" transform="translate(-3.29 -4.85)" fill="#00984f" fill-rule="evenodd"/>
    <path d="M127.47,44.88v8.58h2.13a2.85,2.85,0,0,0,2-.66,2.47,2.47,0,0,0,.71-1.9V47.45a2.5,2.5,0,0,0-.71-1.89,2.78,2.78,0,0,0-2-.67h-2.13Zm-1.65-1.57h3.72a5.58,5.58,0,0,1,2.42.49,3.51,3.51,0,0,1,1.52,1.43,4.52,4.52,0,0,1,.52,2.28v3.31a4.73,4.73,0,0,1-.52,2.27A3.47,3.47,0,0,1,132,54.53a5.58,5.58,0,0,1-2.42.49h-3.7V43.31Z" transform="translate(-3.29 -4.85)" fill="#00984f" fill-rule="evenodd"/>
    <path d="M17.61,25.14v-5H5.55a2.26,2.26,0,0,0-2.26,2.26v9.17a6.35,6.35,0,0,0,6.34,6.34H15a2.71,2.71,0,0,1,2.71,2.71v6.59a4.53,4.53,0,0,0,4.52,4.53h5a8.39,8.39,0,0,0,8.38-8.38V28.53a8.39,8.39,0,0,0-8.38-8.38H23.94v5h3.24a3.4,3.4,0,0,1,3.39,3.39V43.37a3.41,3.41,0,0,1-3.39,3.39H22.64V40a7,7,0,0,0-7-7h-6a1.36,1.36,0,0,1-1.36-1.36V25.12h9.34Z" transform="translate(-3.29 -4.85)" fill="#26b67f" fill-rule="evenodd"/>
    <path d="M29.92,31.47v5H26.67a8.39,8.39,0,0,1-8.38-8.38V13.23a8.39,8.39,0,0,1,8.38-8.38h5a4.53,4.53,0,0,1,4.52,4.52v6.57a2.72,2.72,0,0,0,2.72,2.71h5.32A6.35,6.35,0,0,1,50.56,25v9.17a2.26,2.26,0,0,1-2.26,2.26h-12v-5H45.6V25a1.36,1.36,0,0,0-1.36-1.36h-6a7,7,0,0,1-7-7V9.83H26.67a3.41,3.41,0,0,0-3.39,3.4V28.07a3.41,3.41,0,0,0,3.39,3.39h3.25Z" transform="translate(-3.29 -4.85)" fill="#00984f" fill-rule="evenodd"/>
    <rect x="33.38" y="34.43" width="97.33" height="1.36" fill="#75777d"/>
  </g>
</svg>
