<?xml version="1.0" encoding="UTF-8"?>
<!-- Generator: Adobe Illustrator 16.0.0, SVG Export Plug-In . SVG Version: 6.00 Build 0)  -->
<!DOCTYPE svg PUBLIC "-//W3C//DTD SVG 1.1//EN" "http://www.w3.org/Graphics/SVG/1.1/DTD/svg11.dtd">
<svg version="1.1" id="Layer_1" xmlns="http://www.w3.org/2000/svg" xmlns:xlink="http://www.w3.org/1999/xlink" x="0px" y="0px" width="510px" height="144px" viewBox="0 0 510 144" enable-background="new 0 0 510 144" xml:space="preserve">
<g>
	<path fill="#00A4E4" d="M43.36,42.873c-0.701,3.352-2.758,5.965-5.784,7.48c-2.198,1.021-5.874,1.568-10.855,1.568h-3.714   l3.895-18.343h4.308c4.177,0,6.035,0.189,7.979,0.65C42.742,35.243,44.274,38.547,43.36,42.873 M50.828,24.497   c-3.436-2.344-7.843-3.166-17.031-3.166H16.686L1.971,90.493H14.8l5.58-26.331h4.127c9.836,0,14.476-0.707,18.82-3.048   c6.369-3.472,11.31-10.479,12.981-18.447C58.026,34.707,56.034,28.162,50.828,24.497"/>
	<path fill="#00A4E4" d="M113.824,56.031C111.01,69.34,99.139,79.354,86.013,79.354c-13.102,0-21.188-10.276-18.432-23.38   c2.877-13.405,15.113-23.509,28.416-23.509C108.83,32.466,116.666,42.76,113.824,56.031 M98.83,20.104   c-20.618,0-39.862,15.627-44.16,35.871c-4.232,19.938,8.517,35.761,28.837,35.761c20.099,0,38.98-15.658,43.271-35.874   C130.971,36.097,118.559,20.104,98.83,20.104"/>
	<polygon fill="#00A4E4" points="150.265,21.331 137.439,21.331 122.738,90.493 156.709,90.493 159.341,78.258 138.166,78.258  "/>
	<polygon fill="#00A4E4" points="160.556,2.93 145.857,72.096 168.853,72.096 171.465,59.805 161.259,59.805 173.366,2.93  "/>
	<path fill="#00A4E4" d="M272.649,56.031c-2.807,13.309-14.688,23.323-27.771,23.323c-13.116,0-21.222-10.276-18.455-23.38   c2.867-13.405,15.114-23.509,28.416-23.509C267.667,32.466,275.479,42.76,272.649,56.031 M257.668,20.104   c-20.625,0-39.841,15.627-44.16,35.871c-4.218,19.938,8.511,35.761,28.829,35.761c20.112,0,38.988-15.658,43.305-35.874   C289.834,36.097,277.413,20.104,257.668,20.104"/>
	<path fill="#FFFFFF" d="M297.606,74.465c0.286,4.441,1.958,6.33,5.639,6.33c3.213,0,6.151-2.177,6.761-5.126   c0.36-1.654-0.175-3.106-1.493-4.04c-1.133-0.853-1.498-1.035-5.957-2.651c-9.672-3.476-12.896-7.863-11.255-15.507   c1.874-8.986,11.039-15.968,20.775-15.968c5.198,0,9.657,2.064,12.214,5.757c1.922,2.849,2.402,5.501,1.667,9.918h-12.309   c0.021-2.721-1.393-4.146-4.024-4.146c-2.748,0-5.236,1.877-5.771,4.438c-0.322,1.521,0.261,2.74,1.796,3.521   c1.111,0.552,1.111,0.552,5.902,2.145c4.216,1.427,7.054,2.753,8.694,4.438c2.657,2.562,3.558,6.354,2.573,10.891   c-2.118,9.999-12.02,17.842-22.496,17.842c-6.343,0-11.706-2.714-14.146-7.271c-1.472-2.828-1.784-5.47-1.234-10.57H297.606z"/>
	<path fill="#FFFFFF" d="M397.288,64.734c-1.885,8.96,3.335,16.061,11.806,16.061c8.318,0,16.662-7.101,18.515-15.874   c1.869-8.71-3.419-15.889-11.844-15.889C407.553,49.032,399.12,56.117,397.288,64.734 M440.229,65.304   c-3.16,14.733-18.445,27.003-33.676,27.003c-15.301,0-25.164-12.27-21.956-27.386c3.182-15.032,18.308-27.418,33.513-27.418   C433.904,37.503,443.497,49.669,440.229,65.304"/>
	<polygon fill="#FFFFFF" points="479.88,21.237 476.131,38.714 473.711,50.184 465.019,91.104 477.576,91.104 486.286,50.184    493.84,50.184 496.267,38.714 488.732,38.714 492.433,21.237  "/>
	<polygon fill="#00A4E4" points="218.845,33.579 221.444,21.331 184.268,21.331 173.794,70.599 173.812,70.599 169.564,90.493    206.746,90.493 209.335,78.258 185.003,78.258 189.258,58.333 207.528,58.333 210.15,46.07 191.838,46.07 194.516,33.579  "/>
	<path fill="#FFFFFF" d="M443.92,59.37L443.92,59.37l-6.755,31.734h12.563l6.199-29.125c1.736-8.106,6.284-12.177,13.888-12.391   l2.498-11.816C456.452,38.621,447.082,44.484,443.92,59.37"/>
	<path fill="#FFFFFF" d="M369.673,65.028c-1.905,8.873-9.874,15.767-18.218,15.767c-8.884,0-14.04-6.78-12.098-15.977   c1.906-8.977,9.991-15.786,18.7-15.786C366.538,49.032,371.595,55.934,369.673,65.028 M362.085,37.503   c-15.702,0-30.854,9.942-34.418,26.799l-8.757,41.042h12.591l4.077-19.155c3.816,4.247,8.322,6.118,14.791,6.118   c15.095,0,28.632-11.69,32-27.572C385.762,48.936,377.217,37.503,362.085,37.503"/>
	<g>
		<g>
			<path fill="#FFFFFF" d="M498.59,73.358c5.167,0,9.498,4.079,9.498,9.427c0,5.45-4.331,9.521-9.498,9.521     c-5.183,0-9.551-4.071-9.551-9.521C489.039,77.438,493.407,73.358,498.59,73.358z M498.59,90.916     c4.389,0,7.778-3.499,7.778-8.131c0-4.538-3.39-8.026-7.778-8.026c-4.452,0-7.819,3.488-7.819,8.026     C490.771,87.417,494.138,90.916,498.59,90.916z M494.895,77.294h4.288c2.631,0,3.87,1.033,3.87,3.155     c0,2.002-1.26,2.839-2.912,3.016l3.155,4.895h-1.842l-3.007-4.77h-1.822v4.77h-1.73V77.294z M496.625,82.194h1.796     c1.524,0,2.912-0.071,2.912-1.819c0-1.46-1.261-1.693-2.432-1.693h-2.276V82.194z"/>
		</g>
	</g>
	<g>
		<g>
			<path fill="#FFFFFF" d="M6.831,117.336h5.614c4.282,0,6.565,1.688,5.587,6.295c-0.352,1.652-1.338,3.552-2.979,4.479     c2.627,0.484,3.269,3.248,2.725,5.79c-0.969,4.543-4.591,6.56-8.779,6.56H1.912L6.831,117.336z M7.187,136.842h0.961     c2.417,0,4.56-0.306,5.198-3.306c0.646-3.002-1.787-3.132-4.051-3.132H8.561L7.187,136.842z M9.276,126.966h0.569     c2.196,0,3.407-0.65,3.914-3.036c0.508-2.354-0.712-2.965-2.61-2.965h-0.585L9.276,126.966z"/>
			<path fill="#FFFFFF" d="M27.965,140.459h-4.503l4.912-23.123h4.503L27.965,140.459z"/>
			<path fill="#FFFFFF" d="M43.36,140.459h-4.513l4.082-19.195h-4.657l0.828-3.928h13.833l-0.844,3.928h-4.651L43.36,140.459z"/>
			<path fill="#FFFFFF" d="M58.772,140.459h-4.513l4.914-23.123h4.515L58.772,140.459z"/>
			<path fill="#FFFFFF" d="M88.685,121.264l-1.079,5.088h6.532l-0.842,3.926h-6.529l-2.168,10.182h-4.503l4.919-23.123h11.468     l-0.835,3.928H88.685z"/>
			<path fill="#FFFFFF" d="M103.406,140.459h-4.521l4.915-23.123h4.515L103.406,140.459z"/>
			<path fill="#FFFFFF" d="M118.783,140.459h-4.513l4.095-19.195h-4.667l0.84-3.928h13.823l-0.836,3.928h-4.647L118.783,140.459z"/>
			<path fill="#FFFFFF" d="M148.498,136.536h6.368l-0.831,3.923h-10.887l4.919-23.123h4.508L148.498,136.536z"/>
			<path fill="#FFFFFF" d="M165.818,135.588l-2.917,4.871h-4.756l14.041-23.725h3.497l3.733,23.725h-4.812l-0.742-4.871H165.818z      M172.292,123.512h-0.07l-4.319,8.404h5.479L172.292,123.512z"/>
			<path fill="#FFFFFF" d="M191.627,132.917h0.061l8.448-15.581h4.848l-14.018,23.734h-2.65l-3.781-23.734h4.848L191.627,132.917z"/>
			<path fill="#FFFFFF" d="M216.089,141.07c-7.039,0-10.291-5.4-8.839-12.209c1.46-6.867,7.117-12.127,14.011-12.127     c6.908,0,10.321,5.26,8.852,12.127C228.672,135.67,223.142,141.07,216.089,141.07z M220.321,121.171     c-4.257,0-7.574,3.775-8.374,7.505c-0.756,3.577,0.104,7.958,5.089,7.958c4.994,0,7.707-4.381,8.463-7.958     C226.288,124.946,224.584,121.171,220.321,121.171z"/>
			<path fill="#FFFFFF" d="M244.365,132.917h0.075l8.449-15.581h4.844l-14.019,23.734h-2.64l-3.792-23.734h4.846L244.365,132.917z"/>
			<path fill="#FFFFFF" d="M273.356,122.429c-0.606-1.165-1.56-1.898-3.059-1.898c-1.442,0-3.054,1.104-3.378,2.597     c-0.822,3.897,8.683,2.283,7.047,10.044c-0.987,4.624-4.577,7.899-9.295,7.899c-3.191,0-5.132-1.827-6.158-4.511l3.525-2.841     c0.232,1.781,1.526,3.37,3.452,3.37c1.842,0,3.311-1.557,3.685-3.341c0.503-2.391-1.557-3.065-3.219-3.77     c-2.7-1.233-4.569-2.722-3.808-6.319c0.818-3.836,4.326-6.925,8.217-6.925c2.061,0,4.688,1.015,5.771,2.57L273.356,122.429z"/>
			<path fill="#FFFFFF" d="M295.991,117.336h5.544l-11.04,10.683l6.619,12.44h-5.798l-5.178-10.394h-0.069l-2.196,10.394h-4.512     l4.914-23.123h4.5l-2.06,9.751h0.058L295.991,117.336z"/>
			<path fill="#FFFFFF" d="M307.469,140.459h-4.51l4.913-23.123h4.5L307.469,140.459z"/>
			<path fill="#FFFFFF" d="M339.214,132.609c-0.461,2.136-0.905,3.977-2.589,5.861c-1.577,1.747-3.657,2.6-5.743,2.6     c-1.679,0-3.193-0.979-4.061-2.165l3.567-3.317c0.085,0.672,0.694,1.501,1.435,1.501c2.202,0,2.732-3.734,3.05-5.252     l3.082-14.501h4.5L339.214,132.609z"/>
			<path fill="#FFFFFF" d="M353.906,121.264l-1.085,5.088h7.184l-0.836,3.926h-7.186l-1.312,6.259h7.438l-0.837,3.923h-11.954     l4.906-23.123h11.967l-0.821,3.928H353.906z"/>
			<path fill="#FFFFFF" d="M382.84,140.459h-4.505l4.913-23.123h6.136c4.833,0,7.587,1.942,6.47,7.181     c-1.037,4.901-4.214,7.3-8.948,7.3h-2.229L382.84,140.459z M385.477,128.07h0.915c2.669,0,4.242-0.575,4.882-3.577     c0.631-2.986-1.012-3.409-3.516-3.409h-0.8L385.477,128.07z"/>
			<path fill="#FFFFFF" d="M409.316,141.07c-7.052,0-10.292-5.4-8.847-12.209c1.467-6.867,7.126-12.127,14.024-12.127     c6.894,0,10.309,5.26,8.853,12.127C421.892,135.67,416.374,141.07,409.316,141.07z M413.541,121.171     c-4.262,0-7.565,3.775-8.359,7.505c-0.772,3.577,0.085,7.958,5.067,7.958c5.008,0,7.724-4.381,8.486-7.958     C419.52,124.946,417.798,121.171,413.541,121.171z"/>
			<path fill="#FFFFFF" d="M442.396,122.429c-0.608-1.165-1.557-1.898-3.055-1.898c-1.445,0-3.061,1.104-3.383,2.597     c-0.826,3.897,8.683,2.283,7.03,10.044c-0.968,4.624-4.553,7.899-9.271,7.899c-3.203,0-5.136-1.827-6.167-4.511l3.516-2.841     c0.238,1.781,1.535,3.37,3.473,3.37c1.832,0,3.299-1.557,3.669-3.341c0.514-2.391-1.546-3.065-3.203-3.77     c-2.728-1.233-4.585-2.722-3.807-6.319c0.81-3.836,4.309-6.925,8.207-6.925c2.054,0,4.685,1.015,5.764,2.57L442.396,122.429z"/>
			<path fill="#FFFFFF" d="M454.16,135.588l-2.943,4.871h-4.755l14.066-23.725h3.489l3.729,23.725h-4.813l-0.742-4.871H454.16z      M460.624,123.512h-0.058l-4.343,8.404h5.491L460.624,123.512z"/>
			<path fill="#FFFFFF" d="M483.925,141.07c-7.059,0-10.288-5.4-8.853-12.209c1.472-6.867,7.132-12.127,14.024-12.127     c6.889,0,10.313,5.26,8.847,12.127C496.498,135.67,490.977,141.07,483.925,141.07z M488.149,121.171     c-4.262,0-7.571,3.775-8.365,7.505c-0.757,3.577,0.085,7.958,5.088,7.958c4.993,0,7.697-4.381,8.455-7.958     C494.127,124.946,492.396,121.171,488.149,121.171z"/>
		</g>
	</g>
</g>
</svg>