<?xml version="1.0" encoding="utf-8"?>
<!-- Generator: Adobe Illustrator 24.0.2, SVG Export Plug-In . SVG Version: 6.00 Build 0)  -->
<svg version="1.1" id="Layer_1" xmlns="http://www.w3.org/2000/svg" xmlns:xlink="http://www.w3.org/1999/xlink" x="0px" y="0px"
	 viewBox="0 0 240 80" style="enable-background:new 0 0 240 80;" xml:space="preserve">
<style type="text/css">
	.st0{fill:#121212;}
</style>
<g>
	<path class="st0" d="M24.1,15.9c-4.1,0-7.4,3.3-7.4,7.4s3.3,7.4,7.4,7.4s7.4-3.3,7.4-7.4S28.2,15.9,24.1,15.9 M29.5,23.3
		c0,2.9-2.4,5.3-5.3,5.3s-5.3-2.4-5.3-5.3s2.4-5.3,5.3-5.3S29.5,20.4,29.5,23.3"/>
	<path class="st0" d="M24.3,8.6C11.4,8.6,1,19.1,1,31.9v16.2c0,12.8,10.4,23.3,23.3,23.3c12.8,0,23.3-10.4,23.3-23.3V31.9
		C47.5,19.1,37.1,8.6,24.3,8.6 M22.8,47.4c-2.9,6.6-9,11.4-16.1,12.5C4.3,56.4,3,52.3,3,48.1v-0.7C3,47.4,22.8,47.4,22.8,47.4z
		 M23.2,51v0.5c0,6.2-2.7,12.1-7.4,16.1c-3-1.3-5.7-3.3-7.8-5.8C14.3,60.4,19.9,56.5,23.2,51 M24.3,58.3c1.2,3.8,3.3,7.3,6.3,10.1
		c-2,0.6-4.1,1-6.3,1c-2.1,0-4.3-0.3-6.3-1C20.9,65.6,23.1,62.1,24.3,58.3 M16.3,36.2c2.5,0,4.9,0.9,6.8,2.6
		c-1.3,1.7-2.2,3.7-2.4,5.8c-3.5-1.4-6-4.6-6.4-8.4C14.3,36.2,16.3,36.2,16.3,36.2z M32.6,36.2h0.5l-10.2,7.4
		C24.1,39.2,28,36.2,32.6,36.2 M24.2,45.3c-0.1,0-0.1,0-0.2,0l10.4-7.5c-1.2,4.4-5.1,7.5-9.7,7.5H24.2z M36.8,35.2v-1h-4.2
		c-3,0-5.9,1.1-8.2,3.2c-2.2-2-5.1-3.2-8.2-3.2H12v1c0,4.1,2.1,7.9,5.6,10.2H3V31.9c0-11.7,9.5-21.2,21.2-21.2s21.2,9.5,21.2,21.2
		v13.5H31.2C34.7,43.1,36.8,39.3,36.8,35.2 M32.7,67.6c-4.7-4-7.4-9.9-7.4-16.1v-0.3c3.4,5.5,8.9,9.4,15.2,10.7
		C38.4,64.3,35.7,66.3,32.7,67.6 M45.5,47.4v0.7c0,4.2-1.3,8.3-3.6,11.8c-7.3-1.1-13.3-5.8-16.2-12.5H45.5z"/>
	<polygon class="st0" points="82.2,30.3 74.2,39 82.2,48.6 76.6,48.6 69.8,40.2 69.8,48.6 65.5,48.6 65.5,21 69.8,21 69.8,38.3 
		76.7,30.3 	"/>
	<path class="st0" d="M91.6,49.1c-2.9,0-5.1-0.9-6.7-2.7s-2.4-4.1-2.4-6.9c0-2.8,0.8-5.1,2.5-6.9c1.7-1.8,3.9-2.7,6.7-2.7
		c1.2,0,2.4,0.3,3.4,0.8s1.8,1.2,2.4,2.2v-2.5h4.3v18.3h-4.3v-2.5c-0.5,0.9-1.3,1.6-2.5,2.1C93.9,48.8,92.7,49.1,91.6,49.1
		 M92.2,45.2c1.8,0,3.1-0.6,4-1.7c0.9-1.1,1.4-2.5,1.4-4.2s-0.5-3.1-1.4-4.2c-0.9-1.1-2.3-1.7-4-1.7s-3,0.5-3.9,1.6
		c-1,1.1-1.4,2.5-1.4,4.2s0.5,3.1,1.4,4.2C89.3,44.7,90.6,45.2,92.2,45.2"/>
	<path class="st0" d="M121.4,46.3c-1.7,1.8-4.1,2.7-7.1,2.7s-5.3-0.9-7.1-2.7c-1.7-1.8-2.6-4.1-2.6-6.9c0-2.8,0.9-5.1,2.6-6.9
		c1.7-1.8,4.1-2.7,7.1-2.7s5.3,0.9,7.1,2.7c1.7,1.8,2.6,4.1,2.6,6.9C124.1,42.2,123.2,44.5,121.4,46.3 M110.4,43.6
		c1,1.1,2.3,1.6,4,1.6s3-0.5,4-1.6s1.4-2.5,1.4-4.2s-0.5-3.1-1.4-4.2c-1-1.1-2.3-1.6-4-1.6s-3,0.5-4,1.6s-1.4,2.5-1.4,4.2
		C109,41.2,109.5,42.6,110.4,43.6"/>
	<path class="st0" d="M138,48.6V30.3h4.3v2.6c1.2-2,3.2-3,6-3c4.5,0,6.7,2.4,6.7,7.3v11.5h-4.3V39c0-2-0.3-3.4-0.9-4.3
		c-0.6-0.9-1.6-1.3-3.1-1.3c-1.4,0-2.5,0.4-3.2,1.3c-0.8,0.9-1.1,2.1-1.1,3.8v10.1H138z"/>
	<path class="st0" d="M175.7,38.5c0,0.5,0,1.3-0.1,2.4H162c0.1,1.4,0.5,2.6,1.4,3.3c0.9,0.8,2.1,1.2,3.7,1.2c2,0,3.4-0.7,4.1-2.1
		h4.3c-0.3,1.7-1.2,3.1-2.8,4.2c-1.6,1.1-3.4,1.6-5.6,1.6c-2.9,0-5.2-0.9-6.8-2.6c-1.7-1.7-2.5-4.1-2.5-7s0.8-5.3,2.5-7
		s3.9-2.6,6.7-2.6c2.6,0,4.7,0.8,6.4,2.4C174.9,33.8,175.7,35.9,175.7,38.5 M162,37.6h9.5c0-1.4-0.4-2.5-1.2-3.3s-1.9-1.1-3.4-1.1
		s-2.7,0.4-3.5,1.2C162.5,35.2,162,36.3,162,37.6"/>
	<polygon class="st0" points="195.3,30.3 187.4,39 195.3,48.6 189.7,48.6 183,40.2 183,48.6 178.7,48.6 178.7,21 183,21 183,38.3 
		189.9,30.3 	"/>
	<path class="st0" d="M204.7,49.1c-2.9,0-5.1-0.9-6.7-2.7c-1.6-1.8-2.4-4.1-2.4-6.9c0-2.8,0.8-5.1,2.5-6.9c1.7-1.8,3.9-2.7,6.7-2.7
		c1.2,0,2.4,0.3,3.4,0.8s1.8,1.2,2.4,2.2v-2.5h4.3v18.3h-4.3v-2.5c-0.5,0.9-1.3,1.6-2.5,2.1C207,48.8,205.9,49.1,204.7,49.1
		 M205.4,45.2c1.8,0,3.1-0.6,4-1.7c0.9-1.1,1.4-2.5,1.4-4.2s-0.5-3.1-1.4-4.2c-0.9-1.1-2.3-1.7-4-1.7s-3,0.5-3.9,1.6
		c-1,1.1-1.4,2.5-1.4,4.2s0.5,3.1,1.4,4.2C202.4,44.7,203.7,45.2,205.4,45.2"/>
	<path class="st0" d="M232.7,21h4.3v27.6h-4.3v-2.5c-0.5,0.9-1.3,1.6-2.5,2.1c-1.1,0.5-2.3,0.8-3.4,0.8c-2.9,0-5.1-0.9-6.7-2.7
		c-1.6-1.8-2.4-4.1-2.4-6.9c0-2.8,0.8-5.1,2.5-6.9c1.7-1.8,3.9-2.7,6.7-2.7c1.2,0,2.4,0.3,3.4,0.8s1.8,1.2,2.4,2.2V21z M227.5,45.2
		c1.8,0,3.1-0.6,4-1.7c0.9-1.1,1.4-2.5,1.4-4.2s-0.5-3.1-1.4-4.2c-0.9-1.1-2.3-1.7-4-1.7s-3,0.5-3.9,1.6c-1,1.1-1.4,2.5-1.4,4.2
		s0.5,3.1,1.4,4.2C224.5,44.7,225.8,45.2,227.5,45.2"/>
	<rect x="89.1" y="54.2" class="st0" width="0.9" height="10.5"/>
	<path class="st0" d="M95.3,57.2c-2.1,0-3.8,1.7-3.8,3.8s1.7,3.8,3.8,3.8c2.1,0,3.8-1.7,3.8-3.8C99.1,58.9,97.4,57.2,95.3,57.2
		 M95.3,63.9c-1.6,0-2.9-1.3-2.9-2.9c0-1.6,1.3-2.9,2.9-2.9s2.9,1.3,2.9,2.9C98.1,62.6,96.9,63.9,95.3,63.9"/>
	<polygon class="st0" points="106.2,57.4 104.8,57.4 101.5,60.4 101.5,54.6 100.5,54.6 100.5,64.7 101.5,64.7 101.5,61.3 105,64.7 
		106.3,64.7 102.3,60.9 	"/>
	<path class="st0" d="M112.8,58.7c-0.7-0.9-1.7-1.5-2.9-1.5c-2.1,0-3.8,1.7-3.8,3.8s1.7,3.8,3.8,3.8c1.2,0,2.2-0.5,2.9-1.5v1.3h1
		v-7.3h-1V58.7z M109.9,63.9c-1.6,0-2.9-1.3-2.9-2.9c0-1.6,1.3-2.9,2.9-2.9s2.9,1.3,2.9,2.9C112.8,62.6,111.5,63.9,109.9,63.9"/>
	<rect x="115.7" y="54.2" class="st0" width="0.9" height="10.5"/>
	<path class="st0" d="M121.9,57.2c-1,0-1.9,0.4-2.4,1.2v-1h-0.9v7.3h0.9v-3.8c0-1.7,0.9-2.7,2.3-2.7c1.2,0,2,0.8,2,2v4.5h1v-4.5
		C124.7,58.4,123.6,57.2,121.9,57.2"/>
	<path class="st0" d="M129.8,57.2c-2.1,0-3.8,1.7-3.8,3.8s1.7,3.8,3.8,3.8s3.8-1.7,3.8-3.8C133.6,58.9,132,57.2,129.8,57.2
		 M129.8,63.9c-1.6,0-2.9-1.3-2.9-2.9c0-1.6,1.3-2.9,2.9-2.9s2.9,1.3,2.9,2.9C132.7,62.6,131.4,63.9,129.8,63.9"/>
	<path class="st0" d="M146.2,60.7L146.2,60.7l-0.9-0.6v0.2c-0.1,0.7-0.3,1.3-0.5,1.8l-3-3.1c-0.6-0.6-1-1.1-1-1.9
		c0-1,0.8-1.7,1.9-1.7c1,0,1.7,0.5,2,1.4v0.1l0.8-0.5v-0.1c-0.4-1.2-1.5-1.9-2.9-1.9s-2.9,0.9-2.9,2.7c0,0.9,0.3,1.4,0.7,1.9
		c-1.2,0.6-1.9,1.6-1.9,2.9c0,1.8,1.3,2.9,3.3,2.9c1.2,0,2.2-0.4,2.9-1.2l1.1,1.2l0.9-0.5l-1.4-1.5
		C145.8,62.2,146.1,61.5,146.2,60.7 M141.2,59.7l3,3.2c-0.6,0.6-1.4,0.9-2.3,0.9c-1.4,0-2.3-0.7-2.3-2
		C139.6,60.9,140.2,60.1,141.2,59.7"/>
	<polygon class="st0" points="157.5,57.4 156.1,57.4 152.7,60.4 152.7,54.6 151.8,54.6 151.8,64.7 152.7,64.7 152.7,61.3 
		156.3,64.7 157.6,64.7 153.6,60.9 	"/>
	<polygon class="st0" points="161.1,63.5 158.5,57.4 157.5,57.4 160.6,64.7 161.6,64.7 164.7,57.4 163.7,57.4 	"/>
	<path class="st0" d="M171.6,58.7c-0.7-0.9-1.7-1.5-2.9-1.5c-2.1,0-3.8,1.7-3.8,3.8s1.7,3.8,3.8,3.8c1.2,0,2.2-0.5,2.9-1.5v1.3h1
		v-7.3h-1V58.7z M168.7,63.9c-1.6,0-2.9-1.3-2.9-2.9c0-1.6,1.3-2.9,2.9-2.9c1.6,0,2.9,1.3,2.9,2.9C171.6,62.6,170.3,63.9,168.7,63.9
		"/>
	<rect x="174.4" y="54.2" class="st0" width="0.9" height="10.5"/>
	<path class="st0" d="M177.8,54.6c-0.4,0-0.7,0.3-0.7,0.7s0.3,0.7,0.7,0.7s0.7-0.3,0.7-0.7C178.5,54.9,178.1,54.6,177.8,54.6"/>
	<rect x="177.3" y="57.4" class="st0" width="0.9" height="7.3"/>
	<path class="st0" d="M181.9,55.4l-1,0.3v1.7h-1.5v0.9h1.5v4.5c0,0.7,0.2,1.2,0.6,1.5c0.3,0.3,0.8,0.4,1.4,0.4c0.3,0,0.6,0,0.9-0.1
		h0.1v-0.9h-0.1c-0.8,0.1-1.4,0.1-1.7-0.2c-0.2-0.2-0.3-0.4-0.3-0.9v-4.5h2.1v-0.9h-2.1v-1.8H181.9z"/>
	<path class="st0" d="M188.3,57.2c-2.2,0-3.8,1.6-3.8,3.8s1.6,3.8,3.8,3.8c1.4,0,2.5-0.6,3.2-1.6l0.1-0.1l-0.8-0.5l-0.1,0.1
		c-0.4,0.8-1.3,1.2-2.3,1.2c-1.5,0-2.6-1-2.8-2.4h6.4v-0.1c0-0.1,0-0.1,0-0.2c0-0.1,0-0.1,0-0.2C191.9,59.2,190.7,57.2,188.3,57.2
		 M185.5,60.6c0.2-1.4,1.3-2.4,2.8-2.4c1.4,0,2.4,1,2.6,2.4H185.5z"/>
	<path class="st0" d="M194.9,55.4l-1,0.3v1.7h-1.5v0.9h1.5v4.5c0,0.7,0.2,1.2,0.6,1.5c0.3,0.3,0.8,0.4,1.4,0.4c0.3,0,0.6,0,0.9-0.1
		h0.1v-0.9h-0.1c-0.8,0.1-1.4,0.1-1.7-0.2c-0.2-0.2-0.3-0.4-0.3-0.9v-4.5h2.1v-0.9h-2.1v-1.8H194.9z"/>
	<path class="st0" d="M201.7,57.2c-1,0-1.9,0.4-2.4,1.2v-1h-0.9v7.3h0.9v-3.8c0-1.7,0.9-2.7,2.3-2.7c1.2,0,1.9,0.8,1.9,2v4.5h1v-4.5
		C204.6,58.4,203.5,57.2,201.7,57.2"/>
	<path class="st0" d="M209.7,57.2c-2.1,0-3.8,1.7-3.8,3.8s1.7,3.8,3.8,3.8s3.8-1.7,3.8-3.8C213.5,58.9,211.8,57.2,209.7,57.2
		 M209.7,63.9c-1.6,0-2.9-1.3-2.9-2.9c0-1.6,1.3-2.9,2.9-2.9c1.6,0,2.9,1.3,2.9,2.9C212.5,62.6,211.3,63.9,209.7,63.9"/>
</g>
</svg>
